<?xml version="1.0" encoding="utf-8"?>
<!-- Generator: Adobe Illustrator 16.0.3, SVG Export Plug-In . SVG Version: 6.00 Build 0)  -->
<!DOCTYPE svg PUBLIC "-//W3C//DTD SVG 1.1//EN" "http://www.w3.org/Graphics/SVG/1.1/DTD/svg11.dtd">
<svg version="1.1" id="Layer_1" xmlns="http://www.w3.org/2000/svg" xmlns:xlink="http://www.w3.org/1999/xlink" x="0px" y="0px"
	 width="30px" height="29.918px" viewBox="35 35 30 29.918" enable-background="new 35 35 30 29.918" xml:space="preserve">
<path fill="#010101" d="M62.979,57.5C64.264,55.292,65,52.739,65,50c0-8.284-6.717-15-15-15c-8.284,0-15,6.716-15,15
	c0,8.283,6.716,15,15,15c4.142,0,7.892-1.678,10.605-4.395L57.95,57.95c-2.036,2.04-4.849,3.3-7.95,3.3
	c-6.204,0-11.25-5.046-11.25-11.25c0-6.204,5.046-11.25,11.25-11.25c6.204,0,11.25,5.046,11.25,11.25
	c0,1.333-0.256,2.607-0.685,3.794l-0.029-0.044H57.5V42.541H50c-4.142,0-7.5,3.358-7.5,7.5s3.358,7.5,7.5,7.5
	c1.721,0,3.289-0.604,4.556-1.578C55.236,56.87,56.277,57.5,57.5,57.5H62.979z M53.75,48.132v1.908c0,2.069-1.685,3.75-3.75,3.75
	s-3.75-1.681-3.75-3.75c0-2.069,1.685-3.75,3.75-3.75h3.75V48.132z"/>
</svg>
