<?xml version="1.0" encoding="utf-8"?>
<!-- Generator: Adobe Illustrator 16.0.3, SVG Export Plug-In . SVG Version: 6.00 Build 0)  -->
<!DOCTYPE svg PUBLIC "-//W3C//DTD SVG 1.1//EN" "http://www.w3.org/Graphics/SVG/1.1/DTD/svg11.dtd">
<svg version="1.1" id="Layer_1" xmlns="http://www.w3.org/2000/svg" xmlns:xlink="http://www.w3.org/1999/xlink" x="0px" y="0px"
	 width="30px" height="29.918px" viewBox="0 0 30 29.918" enable-background="new 0 0 30 29.918" xml:space="preserve">
<path fill="#FFFFFF" d="M27.979,22.459c1.285-2.208,2.021-4.761,2.021-7.5c0-8.284-6.717-15-15-15c-8.284,0-15,6.716-15,15
	c0,8.283,6.716,15,15,15c4.143,0,7.893-1.678,10.605-4.395l-2.655-2.655c-2.036,2.04-4.849,3.3-7.95,3.3
	c-6.204,0-11.25-5.046-11.25-11.25S8.796,3.709,15,3.709s11.25,5.046,11.25,11.25c0,1.333-0.256,2.607-0.686,3.794l-0.028-0.044
	H22.5V7.5H15c-4.143,0-7.5,3.357-7.5,7.5s3.357,7.5,7.5,7.5c1.721,0,3.289-0.604,4.557-1.578c0.68,0.907,1.721,1.537,2.943,1.537
	H27.979z M18.75,13.091v1.908c0,2.069-1.686,3.75-3.75,3.75s-3.75-1.681-3.75-3.75s1.686-3.75,3.75-3.75h3.75V13.091z"/>
</svg>
