<?xml version="1.0" encoding="utf-8"?>
<!-- Generator: Adobe Illustrator 16.0.3, SVG Export Plug-In . SVG Version: 6.00 Build 0)  -->
<!DOCTYPE svg PUBLIC "-//W3C//DTD SVG 1.1//EN" "http://www.w3.org/Graphics/SVG/1.1/DTD/svg11.dtd">
<svg version="1.1" id="Layer_1" xmlns="http://www.w3.org/2000/svg" xmlns:xlink="http://www.w3.org/1999/xlink" x="0px" y="0px"
	 width="15px" height="15px" viewBox="7.5 7.5 15 15" enable-background="new 7.5 7.5 15 15" xml:space="preserve">
<path fill="#606060" d="M21.489,18.75C22.132,17.647,22.5,16.37,22.5,15c0-4.142-3.358-7.5-7.5-7.5S7.5,10.858,7.5,15
	c0,4.142,3.358,7.5,7.5,7.5c2.071,0,3.946-0.839,5.303-2.197l-1.327-1.327c-1.018,1.02-2.424,1.649-3.976,1.649
	c-3.102,0-5.625-2.522-5.625-5.625c0-3.102,2.523-5.625,5.625-5.625c3.103,0,5.625,2.523,5.625,5.625
	c0,0.667-0.128,1.304-0.343,1.897l-0.015-0.022H18.75v-5.604H15c-2.071,0-3.75,1.679-3.75,3.75s1.679,3.75,3.75,3.75
	c0.86,0,1.646-0.302,2.278-0.789c0.34,0.453,0.861,0.769,1.472,0.769H21.489z M16.875,14.066v0.954c0,1.035-0.843,1.875-1.875,1.875
	s-1.875-0.841-1.875-1.875c0-1.034,0.843-1.875,1.875-1.875h1.875V14.066z"/>
</svg>
