<?xml version="1.0" encoding="utf-8"?>
<!-- Generator: Adobe Illustrator 16.0.3, SVG Export Plug-In . SVG Version: 6.00 Build 0)  -->
<!DOCTYPE svg PUBLIC "-//W3C//DTD SVG 1.1//EN" "http://www.w3.org/Graphics/SVG/1.1/DTD/svg11.dtd">
<svg version="1.1" id="Your_Icon" xmlns="http://www.w3.org/2000/svg" xmlns:xlink="http://www.w3.org/1999/xlink" x="0px" y="0px"
	 width="20px" height="30px" viewBox="5 5 20 30" enable-background="new 5 5 20 30" xml:space="preserve">
<path d="M18.076,5c-10.805,0-9.808,7.539-9.808,7.539H5v7.77h3.268V35H18.74V20.309h4.487v-6.984L25,6.34
	C21.565,5.139,18.076,5,18.076,5z M21.344,10.642c0,0-3.545-0.521-4.377,0.319c-1.222,0.511-0.831,3.798-0.831,3.798h4.432v3.33
	h-4.432v14.755h-5.263V18.09h-3.27v-3.33c0,0,3.32,0,3.324,0c-0.304-0.001,0.166-3.259,0.201-3.567
	c0.188-1.635,1.632-3.075,3.491-3.61c2.544-0.732,4.87-0.329,7.389,0.194C21.787,8.73,21.564,9.689,21.344,10.642z"/>
</svg>
