<?xml version="1.0" encoding="utf-8"?>
<!-- Generator: Adobe Illustrator 16.0.3, SVG Export Plug-In . SVG Version: 6.00 Build 0)  -->
<!DOCTYPE svg PUBLIC "-//W3C//DTD SVG 1.1//EN" "http://www.w3.org/Graphics/SVG/1.1/DTD/svg11.dtd">
<svg version="1.1" id="Your_Icon" xmlns="http://www.w3.org/2000/svg" xmlns:xlink="http://www.w3.org/1999/xlink" x="0px" y="0px"
	 width="10px" height="15px" viewBox="5 7.5 10 15" enable-background="new 5 7.5 10 15" xml:space="preserve">
<path fill="#606060" d="M11.539,7.5c-5.403,0-4.904,3.77-4.904,3.77H5v3.885h1.635V22.5h5.236v-7.346h2.242v-3.492L15,8.17
	C13.283,7.569,11.539,7.5,11.539,7.5z M13.172,10.321c0,0-1.771-0.261-2.188,0.159c-0.61,0.256-0.415,1.899-0.415,1.899h2.217v1.665
	h-2.217v7.378H7.938v-7.377H6.302V12.38c0,0,1.66,0,1.662,0c-0.151-0.001,0.083-1.63,0.101-1.784
	c0.095-0.817,0.816-1.538,1.746-1.805c1.271-0.366,2.434-0.164,3.693,0.097C13.395,9.364,13.283,9.844,13.172,10.321z"/>
</svg>
