<?xml version="1.0" encoding="utf-8"?>
<!-- Generator: Adobe Illustrator 16.0.3, SVG Export Plug-In . SVG Version: 6.00 Build 0)  -->
<!DOCTYPE svg PUBLIC "-//W3C//DTD SVG 1.1//EN" "http://www.w3.org/Graphics/SVG/1.1/DTD/svg11.dtd">
<svg version="1.1" id="Layer_1" xmlns="http://www.w3.org/2000/svg" xmlns:xlink="http://www.w3.org/1999/xlink" x="0px" y="0px"
	 width="30px" height="30px" viewBox="0 0 30 30" enable-background="new 0 0 30 30" xml:space="preserve">
<g>
	<path fill-rule="evenodd" clip-rule="evenodd" fill="#FFFFFF" d="M30,13.752c0,0.84,0,1.68,0,2.52
		c-0.007,0.014-0.018,0.027-0.02,0.043c-0.005,0.039-0.006,0.078-0.009,0.119c-0.003,0.051-0.003,0.104-0.008,0.156
		c-0.011,0.098-0.023,0.197-0.037,0.297c-0.026,0.193-0.05,0.389-0.082,0.582c-0.056,0.338-0.124,0.676-0.203,1.01
		c-0.236,1-0.571,1.963-1.008,2.893c-0.718,1.531-1.667,2.902-2.847,4.113c-1.064,1.094-2.269,2.006-3.61,2.734
		c-1.052,0.57-2.156,1.008-3.313,1.313c-0.379,0.1-0.761,0.184-1.146,0.252c-0.209,0.037-0.418,0.072-0.628,0.1
		c-0.189,0.025-0.38,0.051-0.571,0.066c-0.104,0.01-0.207,0.02-0.311,0.027C16.18,29.979,16.151,29.98,16.128,30
		c-0.729,0-1.457,0-2.185,0c-0.027-0.021-0.06-0.021-0.091-0.023c-0.172-0.01-0.344-0.029-0.514-0.049
		c-0.154-0.02-0.311-0.035-0.465-0.059c-0.256-0.039-0.512-0.082-0.768-0.133c-0.403-0.08-0.803-0.178-1.199-0.291
		c-0.035-0.01-0.069-0.018-0.102-0.039c0.002-0.012,0-0.023,0.006-0.033c0.018-0.031,0.037-0.063,0.055-0.094
		c0.335-0.541,0.643-1.096,0.906-1.676c0.23-0.502,0.423-1.02,0.562-1.555c0.187-0.723,0.372-1.447,0.558-2.17
		c0.145-0.566,0.287-1.133,0.43-1.697c0.004-0.016,0.009-0.031,0.016-0.045c0.002-0.006,0.012-0.01,0.018-0.012
		c0.002-0.002,0.008,0.002,0.01,0.006c0.012,0.016,0.023,0.031,0.034,0.049c0.115,0.189,0.254,0.359,0.411,0.514
		c0.199,0.199,0.42,0.371,0.658,0.52c0.78,0.484,1.631,0.725,2.548,0.734c0.144,0.002,0.288-0.01,0.432-0.014
		c0.141-0.002,0.279-0.018,0.418-0.033c0.227-0.025,0.451-0.063,0.675-0.107c0.67-0.141,1.307-0.371,1.909-0.695
		c0.711-0.383,1.337-0.873,1.892-1.459c0.545-0.576,0.996-1.219,1.372-1.916c0.364-0.674,0.647-1.381,0.864-2.117
		c0.132-0.443,0.239-0.895,0.318-1.352c0.029-0.17,0.059-0.34,0.084-0.51c0.021-0.141,0.038-0.285,0.054-0.428
		c0.013-0.115,0.022-0.23,0.032-0.345c0.014-0.155,0.028-0.311,0.036-0.466c0.011-0.208,0.018-0.416,0.022-0.624
		c0.009-0.404-0.011-0.807-0.061-1.209c-0.032-0.258-0.075-0.514-0.133-0.768c-0.156-0.694-0.398-1.357-0.727-1.988
		c-0.594-1.139-1.404-2.096-2.42-2.879C20.667,6.177,19.412,5.611,18.04,5.3c-0.238-0.054-0.478-0.099-0.719-0.137
		c-0.134-0.021-0.27-0.038-0.404-0.054c-0.111-0.013-0.223-0.02-0.334-0.032c-0.183-0.021-0.367-0.029-0.551-0.035
		c-0.464-0.016-0.928-0.006-1.391,0.023c-0.008,0-0.016,0.001-0.023,0.001c-0.211,0.021-0.423,0.036-0.633,0.061
		c-0.199,0.023-0.396,0.05-0.594,0.083c-0.305,0.05-0.605,0.111-0.904,0.185c-0.783,0.191-1.539,0.46-2.262,0.818
		c-1.172,0.58-2.197,1.354-3.059,2.338c-0.869,0.991-1.506,2.112-1.905,3.369c-0.12,0.378-0.213,0.762-0.278,1.153
		c-0.03,0.182-0.057,0.363-0.074,0.546c-0.021,0.211-0.039,0.422-0.041,0.634c-0.002,0.264-0.002,0.528,0.018,0.791
		c0.011,0.146,0.021,0.295,0.037,0.441c0.027,0.238,0.063,0.475,0.109,0.711c0.085,0.428,0.203,0.848,0.364,1.254
		c0.185,0.467,0.422,0.904,0.726,1.305c0.336,0.441,0.734,0.813,1.209,1.102c0.188,0.115,0.383,0.215,0.586,0.301
		c0.082,0.033,0.166,0.059,0.255,0.063c0.161,0.008,0.298-0.045,0.404-0.168c0.04-0.047,0.071-0.098,0.093-0.154
		c0.018-0.049,0.035-0.098,0.047-0.148c0.104-0.398,0.205-0.797,0.306-1.195c0.018-0.07,0.031-0.141,0.038-0.213
		c0.013-0.119-0.01-0.23-0.068-0.334c-0.039-0.07-0.087-0.135-0.137-0.197c-0.045-0.057-0.092-0.111-0.137-0.168
		c-0.336-0.42-0.578-0.891-0.725-1.408c-0.07-0.252-0.119-0.506-0.147-0.766c-0.024-0.223-0.039-0.443-0.04-0.668
		c0-0.248,0.016-0.495,0.039-0.742c0.021-0.227,0.056-0.452,0.098-0.676c0.107-0.56,0.276-1.101,0.513-1.619
		c0.546-1.197,1.358-2.17,2.449-2.907c0.646-0.436,1.347-0.75,2.097-0.956c0.309-0.085,0.621-0.151,0.938-0.196
		c0.143-0.021,0.285-0.038,0.429-0.052c0.191-0.019,0.383-0.032,0.574-0.036c0.271-0.006,0.544-0.004,0.815,0.014
		c0.239,0.017,0.478,0.04,0.716,0.073c0.289,0.041,0.574,0.099,0.856,0.175c0.465,0.125,0.912,0.297,1.336,0.527
		c0.594,0.322,1.111,0.737,1.541,1.26c0.568,0.691,0.92,1.483,1.101,2.355c0.033,0.161,0.059,0.322,0.079,0.485
		c0.016,0.131,0.03,0.262,0.038,0.394c0.023,0.4,0.011,0.8-0.002,1.2c-0.001,0.012-0.001,0.024-0.002,0.036
		c-0.021,0.243-0.033,0.487-0.061,0.729c-0.023,0.214-0.05,0.427-0.083,0.642c-0.044,0.279-0.097,0.559-0.16,0.836
		c-0.117,0.514-0.268,1.02-0.459,1.512c-0.185,0.475-0.406,0.932-0.677,1.363c-0.239,0.379-0.513,0.734-0.835,1.049
		c-0.235,0.23-0.491,0.434-0.775,0.602c-0.561,0.332-1.165,0.496-1.819,0.469c-0.181-0.008-0.358-0.033-0.533-0.078
		c-0.44-0.111-0.824-0.324-1.143-0.65c-0.349-0.359-0.553-0.791-0.611-1.287c-0.034-0.291-0.016-0.584,0.057-0.869
		c0.055-0.217,0.108-0.434,0.167-0.65c0.126-0.463,0.269-0.92,0.409-1.379c0.147-0.477,0.297-0.955,0.428-1.435
		c0.122-0.452,0.232-0.906,0.288-1.372c0.018-0.146,0.031-0.294,0.034-0.442c0.003-0.237-0.02-0.472-0.069-0.703
		c-0.058-0.268-0.153-0.521-0.302-0.753c-0.252-0.395-0.604-0.653-1.057-0.777c-0.201-0.055-0.407-0.076-0.617-0.076
		c-0.313,0-0.61,0.064-0.897,0.185c-0.31,0.13-0.581,0.32-0.821,0.553c-0.207,0.202-0.383,0.429-0.533,0.677
		c-0.336,0.557-0.521,1.165-0.602,1.807c-0.017,0.135-0.023,0.271-0.033,0.406c-0.02,0.264-0.004,0.528,0.015,0.79
		c0.016,0.211,0.046,0.422,0.085,0.631c0.076,0.396,0.184,0.785,0.344,1.158c0.021,0.047,0.024,0.09,0.013,0.139
		c-0.064,0.271-0.128,0.545-0.192,0.816c-0.141,0.596-0.282,1.189-0.423,1.785c-0.147,0.625-0.296,1.252-0.443,1.879
		c-0.133,0.563-0.267,1.127-0.399,1.691c-0.14,0.59-0.28,1.182-0.419,1.773c-0.044,0.189-0.089,0.381-0.125,0.574
		c-0.069,0.365-0.114,0.734-0.144,1.105c-0.017,0.199-0.033,0.398-0.034,0.598c0,0.049-0.002,0.096-0.005,0.145
		c-0.014,0.307-0.014,0.615,0,0.924c0.003,0.072,0.003,0.143,0.004,0.215c0,0.018-0.019,0.029-0.033,0.023
		c-0.056-0.023-0.111-0.047-0.166-0.072c-2.166-0.998-3.997-2.428-5.49-4.287c-1.184-1.477-2.055-3.121-2.617-4.928
		c-0.162-0.523-0.295-1.055-0.396-1.594c-0.058-0.303-0.109-0.605-0.146-0.912c-0.01-0.078-0.021-0.158-0.029-0.236
		c-0.013-0.119-0.026-0.24-0.036-0.359c-0.012-0.135-0.021-0.271-0.029-0.406c-0.002-0.012-0.004-0.023-0.004-0.035
		c-0.004-0.031-0.021-0.053-0.045-0.068c0-0.553,0-1.104,0-1.656c0.024-0.017,0.041-0.039,0.044-0.068
		c0.003-0.032,0.005-0.064,0.007-0.096c0.011-0.14,0.018-0.279,0.031-0.418c0.019-0.179,0.042-0.357,0.063-0.536
		c0.026-0.234,0.064-0.467,0.105-0.7c0.07-0.389,0.154-0.775,0.254-1.159c0.339-1.295,0.842-2.524,1.512-3.683
		c1.15-1.988,2.674-3.631,4.57-4.928c1.176-0.805,2.442-1.425,3.797-1.867c0.559-0.182,1.127-0.331,1.704-0.444
		c0.341-0.067,0.684-0.125,1.029-0.167c0.079-0.01,0.158-0.02,0.237-0.029c0.115-0.013,0.23-0.026,0.347-0.036
		c0.127-0.011,0.255-0.02,0.382-0.03c0.017-0.001,0.033-0.002,0.048-0.007C14.14,0.014,14.149,0.006,14.159,0
		c0.576,0,1.152,0,1.729,0c0.023,0.018,0.051,0.021,0.079,0.023c0.064,0.004,0.128,0.008,0.191,0.014
		c0.136,0.012,0.271,0.024,0.406,0.037c0.104,0.01,0.207,0.019,0.31,0.033c0.194,0.026,0.388,0.056,0.582,0.085
		c0.313,0.047,0.622,0.109,0.93,0.18c0.784,0.18,1.55,0.419,2.296,0.724c2.057,0.841,3.843,2.075,5.354,3.702
		c1.483,1.597,2.567,3.432,3.256,5.5c0.178,0.535,0.323,1.08,0.438,1.632c0.072,0.344,0.133,0.69,0.178,1.04
		c0.029,0.226,0.064,0.451,0.068,0.68c0,0.024,0.004,0.048,0.009,0.071C29.985,13.732,29.994,13.742,30,13.752z"/>
</g>
</svg>
