<?xml version="1.0" encoding="utf-8"?>
<!-- Generator: Adobe Illustrator 16.0.3, SVG Export Plug-In . SVG Version: 6.00 Build 0)  -->
<!DOCTYPE svg PUBLIC "-//W3C//DTD SVG 1.1//EN" "http://www.w3.org/Graphics/SVG/1.1/DTD/svg11.dtd">
<svg version="1.1" id="Layer_1" xmlns="http://www.w3.org/2000/svg" xmlns:xlink="http://www.w3.org/1999/xlink" x="0px" y="0px"
	 width="15px" height="15px" viewBox="7.502 7.5 15 15" enable-background="new 7.502 7.5 15 15" xml:space="preserve">
<g>
	<path fill="#606060" d="M22.502,14.376c0,0.419,0,0.84,0,1.26c-0.005,0.008-0.009,0.014-0.011,0.021
		c-0.003,0.02-0.003,0.039-0.004,0.06c-0.003,0.025-0.003,0.052-0.005,0.079c-0.006,0.048-0.012,0.098-0.019,0.147
		c-0.014,0.097-0.025,0.194-0.041,0.292c-0.028,0.168-0.062,0.336-0.102,0.504c-0.118,0.5-0.285,0.98-0.504,1.447
		c-0.358,0.764-0.833,1.449-1.424,2.057c-0.531,0.546-1.133,1.003-1.804,1.366c-0.526,0.286-1.08,0.504-1.657,0.656
		c-0.19,0.05-0.381,0.093-0.574,0.126c-0.104,0.02-0.208,0.037-0.313,0.05c-0.094,0.013-0.19,0.026-0.285,0.034
		c-0.053,0.004-0.104,0.01-0.155,0.013c-0.015,0.001-0.029,0.001-0.04,0.012c-0.364,0-0.729,0-1.093,0
		c-0.013-0.011-0.03-0.011-0.045-0.012c-0.086-0.005-0.173-0.015-0.258-0.024c-0.076-0.01-0.155-0.018-0.231-0.029
		c-0.129-0.02-0.257-0.041-0.385-0.066c-0.201-0.039-0.401-0.09-0.599-0.145c-0.018-0.006-0.035-0.011-0.052-0.021
		c0.002-0.006,0-0.012,0.003-0.016c0.01-0.016,0.02-0.031,0.028-0.047c0.167-0.271,0.321-0.548,0.452-0.838
		c0.115-0.25,0.212-0.51,0.281-0.777c0.094-0.362,0.186-0.725,0.279-1.086c0.072-0.283,0.144-0.565,0.215-0.848
		c0.002-0.008,0.005-0.016,0.008-0.022c0.001-0.003,0.006-0.006,0.009-0.006c0.001-0.001,0.004,0,0.006,0.003
		c0.006,0.008,0.012,0.015,0.017,0.025c0.058,0.094,0.127,0.178,0.206,0.256c0.099,0.1,0.209,0.186,0.328,0.26
		c0.39,0.242,0.816,0.363,1.274,0.367c0.071,0.002,0.145-0.004,0.217-0.008c0.07,0,0.139-0.008,0.208-0.016
		c0.114-0.014,0.226-0.032,0.338-0.055c0.334-0.07,0.653-0.184,0.955-0.347c0.354-0.192,0.668-0.437,0.945-0.729
		c0.272-0.289,0.498-0.609,0.687-0.958c0.182-0.337,0.323-0.69,0.432-1.06c0.066-0.221,0.119-0.446,0.158-0.675
		c0.015-0.085,0.029-0.17,0.043-0.255c0.01-0.07,0.019-0.143,0.026-0.214c0.007-0.058,0.012-0.115,0.016-0.173
		c0.008-0.078,0.015-0.155,0.018-0.233c0.006-0.104,0.011-0.208,0.012-0.312c0.005-0.202-0.006-0.404-0.03-0.604
		c-0.017-0.129-0.037-0.257-0.066-0.385c-0.079-0.347-0.199-0.678-0.363-0.994c-0.297-0.569-0.702-1.048-1.209-1.439
		c-0.559-0.43-1.187-0.713-1.872-0.869c-0.12-0.027-0.239-0.049-0.36-0.068c-0.066-0.011-0.135-0.019-0.202-0.027
		c-0.055-0.006-0.111-0.01-0.167-0.016c-0.091-0.01-0.184-0.015-0.275-0.018c-0.231-0.008-0.464-0.003-0.695,0.012
		c-0.005,0-0.008,0-0.012,0c-0.105,0.011-0.212,0.019-0.316,0.031c-0.1,0.012-0.198,0.025-0.297,0.042
		c-0.153,0.025-0.303,0.055-0.452,0.093c-0.392,0.095-0.77,0.229-1.131,0.408c-0.586,0.29-1.099,0.678-1.53,1.169
		c-0.435,0.496-0.753,1.057-0.952,1.685c-0.06,0.189-0.107,0.382-0.139,0.577c-0.015,0.091-0.028,0.181-0.037,0.272
		c-0.011,0.105-0.02,0.211-0.021,0.317c-0.001,0.132-0.001,0.265,0.009,0.396c0.005,0.073,0.01,0.147,0.019,0.221
		c0.014,0.118,0.031,0.237,0.055,0.355c0.042,0.214,0.101,0.425,0.182,0.627c0.092,0.234,0.211,0.452,0.363,0.653
		c0.168,0.22,0.367,0.406,0.604,0.551c0.095,0.057,0.191,0.107,0.293,0.15c0.041,0.017,0.083,0.029,0.127,0.031
		c0.081,0.004,0.149-0.021,0.202-0.084c0.021-0.023,0.036-0.049,0.047-0.077c0.009-0.024,0.018-0.048,0.023-0.073
		c0.053-0.199,0.103-0.398,0.153-0.598c0.009-0.035,0.016-0.07,0.02-0.107c0.006-0.059-0.006-0.113-0.035-0.166
		c-0.019-0.035-0.043-0.068-0.067-0.099c-0.023-0.029-0.047-0.056-0.069-0.083c-0.168-0.211-0.288-0.447-0.362-0.705
		c-0.035-0.126-0.06-0.252-0.073-0.383c-0.013-0.111-0.02-0.222-0.02-0.334c0-0.124,0.007-0.247,0.019-0.371
		c0.011-0.113,0.028-0.226,0.049-0.338c0.054-0.279,0.139-0.551,0.257-0.809c0.273-0.599,0.679-1.085,1.225-1.454
		c0.323-0.219,0.674-0.375,1.049-0.479c0.154-0.042,0.311-0.075,0.469-0.098c0.071-0.011,0.143-0.019,0.214-0.026
		c0.097-0.009,0.192-0.016,0.287-0.018c0.136-0.003,0.272-0.002,0.407,0.007c0.12,0.009,0.24,0.02,0.359,0.037
		c0.145,0.021,0.286,0.05,0.427,0.087c0.233,0.063,0.457,0.148,0.668,0.264c0.298,0.161,0.557,0.368,0.772,0.63
		c0.284,0.346,0.46,0.742,0.551,1.178c0.016,0.08,0.029,0.161,0.038,0.242c0.009,0.066,0.016,0.131,0.019,0.197
		c0.012,0.2,0.006,0.399,0,0.6c-0.001,0.006-0.001,0.013-0.001,0.019c-0.011,0.121-0.017,0.243-0.031,0.364
		c-0.012,0.107-0.024,0.213-0.041,0.321c-0.021,0.139-0.048,0.279-0.08,0.417c-0.059,0.257-0.134,0.511-0.229,0.757
		c-0.094,0.236-0.204,0.465-0.34,0.681c-0.119,0.188-0.257,0.368-0.418,0.524c-0.117,0.115-0.246,0.217-0.387,0.302
		c-0.281,0.165-0.583,0.247-0.909,0.234c-0.091-0.005-0.18-0.017-0.267-0.04c-0.221-0.055-0.413-0.16-0.572-0.324
		c-0.175-0.18-0.276-0.396-0.306-0.644c-0.017-0.146-0.008-0.292,0.028-0.435c0.028-0.109,0.055-0.217,0.084-0.326
		c0.063-0.23,0.135-0.459,0.204-0.688c0.074-0.238,0.148-0.477,0.215-0.717c0.061-0.227,0.115-0.453,0.144-0.687
		c0.009-0.072,0.016-0.146,0.018-0.221c0.001-0.118-0.011-0.236-0.035-0.351c-0.028-0.134-0.076-0.261-0.151-0.376
		c-0.126-0.198-0.302-0.327-0.527-0.389c-0.102-0.027-0.204-0.038-0.31-0.038c-0.156,0-0.305,0.032-0.448,0.092
		c-0.155,0.065-0.291,0.161-0.41,0.277c-0.104,0.101-0.191,0.214-0.267,0.338c-0.168,0.278-0.261,0.583-0.302,0.904
		c-0.008,0.067-0.011,0.135-0.016,0.203c-0.011,0.132-0.002,0.264,0.007,0.395c0.009,0.105,0.023,0.211,0.043,0.315
		c0.038,0.198,0.092,0.393,0.172,0.579c0.011,0.023,0.012,0.046,0.007,0.07c-0.032,0.135-0.064,0.272-0.096,0.407
		c-0.071,0.299-0.142,0.595-0.212,0.893c-0.073,0.313-0.148,0.627-0.222,0.939c-0.066,0.281-0.134,0.563-0.199,0.846
		c-0.07,0.295-0.141,0.59-0.21,0.887c-0.021,0.095-0.045,0.189-0.063,0.287c-0.034,0.183-0.057,0.367-0.072,0.552
		c-0.008,0.1-0.016,0.199-0.017,0.3c0,0.023-0.001,0.047-0.002,0.072c-0.008,0.154-0.008,0.308,0,0.461
		c0.001,0.037,0.001,0.072,0.002,0.109c0,0.008-0.01,0.014-0.017,0.012c-0.028-0.012-0.056-0.023-0.083-0.037
		c-1.083-0.5-1.999-1.215-2.745-2.143c-0.593-0.738-1.028-1.563-1.309-2.465c-0.081-0.262-0.148-0.527-0.198-0.797
		c-0.029-0.152-0.054-0.303-0.073-0.457c-0.005-0.037-0.011-0.078-0.015-0.117c-0.006-0.06-0.013-0.12-0.018-0.18
		c-0.006-0.067-0.01-0.136-0.014-0.203c-0.001-0.006-0.002-0.012-0.002-0.018c-0.002-0.016-0.011-0.026-0.022-0.034
		c0-0.276,0-0.552,0-0.828c0.012-0.008,0.02-0.019,0.021-0.034c0.001-0.016,0.003-0.032,0.004-0.048
		c0.005-0.069,0.009-0.139,0.015-0.209c0.01-0.089,0.021-0.179,0.032-0.268c0.013-0.117,0.032-0.234,0.053-0.351
		c0.035-0.194,0.077-0.387,0.126-0.579c0.17-0.647,0.421-1.262,0.756-1.841c0.576-0.994,1.337-1.816,2.286-2.464
		c0.589-0.403,1.222-0.712,1.898-0.934c0.279-0.091,0.563-0.165,0.852-0.222c0.171-0.034,0.343-0.063,0.516-0.083
		c0.039-0.005,0.079-0.01,0.118-0.015c0.058-0.006,0.115-0.013,0.174-0.018c0.063-0.006,0.127-0.01,0.19-0.015
		c0.009-0.001,0.017-0.001,0.024-0.004c0.003-0.003,0.008-0.007,0.013-0.01c0.288,0,0.576,0,0.865,0
		c0.011,0.009,0.024,0.01,0.039,0.012c0.032,0.001,0.064,0.003,0.096,0.006c0.067,0.006,0.136,0.013,0.203,0.02
		c0.051,0.004,0.104,0.009,0.155,0.016c0.097,0.014,0.193,0.028,0.29,0.043c0.156,0.023,0.312,0.054,0.466,0.09
		c0.391,0.09,0.774,0.209,1.148,0.362c1.028,0.42,1.921,1.038,2.676,1.851c0.742,0.799,1.284,1.716,1.629,2.75
		c0.089,0.268,0.161,0.54,0.218,0.816c0.037,0.172,0.067,0.345,0.09,0.52c0.015,0.113,0.032,0.226,0.035,0.34
		c0,0.013,0.001,0.024,0.003,0.036C22.493,14.366,22.499,14.371,22.502,14.376z"/>
</g>
</svg>
