<?xml version="1.0" encoding="utf-8"?>
<!-- Generator: Adobe Illustrator 16.0.3, SVG Export Plug-In . SVG Version: 6.00 Build 0)  -->
<!DOCTYPE svg PUBLIC "-//W3C//DTD SVG 1.1//EN" "http://www.w3.org/Graphics/SVG/1.1/DTD/svg11.dtd">
<svg version="1.1" id="Layer_1" xmlns="http://www.w3.org/2000/svg" xmlns:xlink="http://www.w3.org/1999/xlink" x="0px" y="0px"
	 width="15px" height="15px" viewBox="7.498 7.5 15 15" enable-background="new 7.498 7.5 15 15" xml:space="preserve">
<g id="Captions">
</g>
<g id="Your_Icon">
	<g>
		<path fill="#009593" d="M12.527,22.5c-1.711,0-3.375-0.586-4.807-1.695c-0.188-0.146-0.27-0.43-0.194-0.684
			c0.075-0.256,0.285-0.414,0.509-0.385c0.001,0,0.226,0.029,0.574,0.029c0.669,0,1.765-0.102,2.701-0.654
			c-1.22-0.582-1.816-1.852-1.975-2.584c-0.042-0.189,0-0.391,0.109-0.535c-0.977-1.004-1.207-2.385-1.159-3.162
			c0.012-0.204,0.112-0.384,0.264-0.476c0.04-0.025,0.083-0.042,0.126-0.052c-0.677-1.521-0.306-3.146,0.09-3.956
			c0.078-0.16,0.214-0.265,0.368-0.284c0.153-0.021,0.305,0.051,0.409,0.188c1.331,1.768,2.789,2.618,3.776,3.02
			c0.527,0.214,0.981,0.327,1.31,0.388c0-0.026-0.001-0.051-0.001-0.075c0-2.251,1.526-4.083,3.399-4.083
			c1.809,0,3.396,1.908,3.396,4.083C21.423,17.807,17.601,22.5,12.527,22.5z M9.926,20.811c0.832,0.346,1.708,0.525,2.601,0.525
			c2.16,0,4.151-0.957,5.608-2.689c1.494-1.785,2.32-4.292,2.32-7.063c0-1.378-1.039-2.919-2.43-2.919
			c-1.34,0-2.43,1.309-2.43,2.919c0,0.204,0.018,0.406,0.051,0.604c0.031,0.173-0.006,0.352-0.098,0.488
			c-0.093,0.136-0.23,0.219-0.38,0.213c-0.132-0.001-3.094-0.065-5.812-3.197c-0.168,0.797-0.189,2.073,0.949,3.12
			c0.16,0.147,0.226,0.398,0.167,0.63c-0.059,0.231-0.232,0.396-0.434,0.413c0,0-0.029,0.002-0.081,0.002
			c-0.122,0-0.344-0.012-0.609-0.083c0.174,0.695,0.639,1.624,1.875,2.052c0.215,0.072,0.36,0.316,0.35,0.584
			c-0.01,0.27-0.173,0.496-0.393,0.545c-0.014,0.004-0.261,0.059-0.574,0.082c0.315,0.531,0.896,1.143,1.913,1.217
			c0.192,0.014,0.359,0.162,0.425,0.379c0.067,0.219,0.021,0.461-0.118,0.621C11.998,20.209,10.886,20.633,9.926,20.811z"/>
	</g>
	<g>
		<path fill="#009593" d="M20.712,10.803c-0.162,0-0.322-0.099-0.414-0.278c-0.141-0.273-0.068-0.631,0.158-0.8
			c0.068-0.05,0.135-0.104,0.197-0.16c-0.16,0.05-0.326,0.093-0.492,0.122c-0.266,0.048-0.512-0.173-0.551-0.491
			s0.145-0.614,0.408-0.661c0.889-0.157,1.729-0.785,1.736-0.791c0.174-0.13,0.396-0.117,0.557,0.034
			c0.16,0.15,0.227,0.406,0.164,0.639c-0.262,0.955-0.797,1.771-1.512,2.298C20.884,10.774,20.798,10.803,20.712,10.803z"/>
	</g>
	<g>
		<path fill="#009593" d="M20.94,12.653c-0.15,0-0.297-0.082-0.391-0.236c-0.158-0.259-0.113-0.624,0.104-0.814
			c0.014-0.014,0.031-0.028,0.047-0.042c-0.08-0.084-0.137-0.201-0.156-0.335c-0.047-0.317,0.129-0.618,0.393-0.673
			c0.541-0.114,0.811-0.315,0.813-0.318c0.193-0.146,0.449-0.113,0.609,0.084c0.158,0.198,0.186,0.5,0.059,0.728
			c-0.322,0.576-0.725,1.079-1.189,1.493C21.14,12.616,21.04,12.653,20.94,12.653z"/>
	</g>
</g>
</svg>
