<?xml version="1.0" encoding="utf-8"?>
<!-- Generator: Adobe Illustrator 16.0.3, SVG Export Plug-In . SVG Version: 6.00 Build 0)  -->
<!DOCTYPE svg PUBLIC "-//W3C//DTD SVG 1.1//EN" "http://www.w3.org/Graphics/SVG/1.1/DTD/svg11.dtd">
<svg version="1.1" id="Layer_1" xmlns="http://www.w3.org/2000/svg" xmlns:xlink="http://www.w3.org/1999/xlink" x="0px" y="0px"
	 width="15px" height="15px" viewBox="7.498 7.5 15 15" enable-background="new 7.498 7.5 15 15" xml:space="preserve">
<g id="Captions">
</g>
<g id="Your_Icon">
	<g>
		<path fill="#606060" d="M12.528,22.5c-1.712,0-3.375-0.586-4.808-1.694c-0.188-0.146-0.27-0.428-0.194-0.684
			c0.075-0.254,0.285-0.412,0.509-0.383c0.001,0,0.225,0.027,0.574,0.027c0.669,0,1.766-0.102,2.702-0.654
			c-1.22-0.584-1.817-1.852-1.975-2.584c-0.042-0.189,0-0.391,0.108-0.535c-0.977-1.005-1.207-2.386-1.159-3.164
			c0.012-0.203,0.112-0.383,0.264-0.475c0.04-0.025,0.083-0.042,0.126-0.052c-0.677-1.521-0.307-3.146,0.09-3.956
			c0.078-0.16,0.214-0.266,0.368-0.284c0.154-0.02,0.305,0.051,0.409,0.188c1.332,1.769,2.789,2.618,3.777,3.02
			c0.527,0.214,0.98,0.327,1.309,0.388c0-0.025-0.001-0.05-0.001-0.074c0-2.252,1.524-4.083,3.397-4.083
			c1.811,0,3.398,1.908,3.398,4.083C21.423,17.807,17.599,22.5,12.528,22.5z M9.926,20.812c0.832,0.346,1.708,0.525,2.602,0.525
			c2.16,0,4.148-0.957,5.605-2.691c1.496-1.783,2.32-4.291,2.32-7.062c0-1.379-1.037-2.92-2.43-2.92c-1.338,0-2.428,1.31-2.428,2.92
			c0,0.203,0.018,0.406,0.051,0.604c0.031,0.172-0.006,0.352-0.098,0.488c-0.094,0.136-0.229,0.219-0.379,0.213
			c-0.133-0.001-3.095-0.065-5.813-3.197c-0.168,0.796-0.189,2.073,0.949,3.12c0.16,0.146,0.226,0.398,0.167,0.63
			c-0.059,0.232-0.231,0.396-0.434,0.413c0,0-0.029,0.002-0.081,0.002c-0.122,0-0.344-0.013-0.609-0.083
			c0.174,0.695,0.638,1.624,1.875,2.051c0.216,0.074,0.36,0.318,0.351,0.586c-0.011,0.27-0.173,0.495-0.394,0.547
			c-0.013,0.002-0.261,0.059-0.573,0.08c0.314,0.531,0.896,1.143,1.912,1.217c0.192,0.014,0.359,0.162,0.426,0.379
			c0.066,0.218,0.021,0.461-0.119,0.621C11.999,20.21,10.886,20.634,9.926,20.812z"/>
	</g>
	<g>
		<path fill="#606060" d="M20.712,10.802c-0.164,0-0.322-0.099-0.414-0.277c-0.141-0.273-0.07-0.632,0.158-0.801
			c0.068-0.05,0.133-0.103,0.197-0.159c-0.16,0.05-0.326,0.093-0.494,0.122c-0.266,0.048-0.512-0.173-0.549-0.491
			c-0.039-0.317,0.143-0.613,0.408-0.66c0.889-0.157,1.727-0.785,1.736-0.791c0.172-0.131,0.395-0.117,0.557,0.033
			c0.16,0.15,0.225,0.406,0.162,0.639c-0.26,0.955-0.795,1.771-1.51,2.299C20.884,10.773,20.796,10.802,20.712,10.802z"/>
	</g>
	<g>
		<path fill="#606060" d="M20.938,12.653c-0.148,0-0.295-0.082-0.389-0.236c-0.158-0.259-0.113-0.623,0.102-0.813
			c0.016-0.014,0.031-0.028,0.047-0.042c-0.078-0.085-0.137-0.2-0.156-0.335c-0.045-0.317,0.131-0.618,0.395-0.674
			c0.539-0.114,0.809-0.315,0.813-0.317c0.193-0.147,0.447-0.113,0.609,0.084c0.16,0.198,0.184,0.5,0.057,0.729
			c-0.322,0.576-0.723,1.079-1.188,1.492C21.14,12.616,21.04,12.653,20.938,12.653z"/>
	</g>
</g>
</svg>
