<?xml version="1.0" encoding="utf-8"?>
<!-- Generator: Adobe Illustrator 16.0.3, SVG Export Plug-In . SVG Version: 6.00 Build 0)  -->
<!DOCTYPE svg PUBLIC "-//W3C//DTD SVG 1.1//EN" "http://www.w3.org/Graphics/SVG/1.1/DTD/svg11.dtd">
<svg version="1.1" id="Layer_1" xmlns="http://www.w3.org/2000/svg" xmlns:xlink="http://www.w3.org/1999/xlink" x="0px" y="0px"
	 width="29.998px" height="30px" viewBox="35 35 29.998 30" enable-background="new 35 35 29.998 30" xml:space="preserve">
<g id="Captions">
</g>
<g id="Your_Icon">
	<g>
		<path fill="#FFFFFF" d="M45.06,65c-3.424,0-6.75-1.172-9.616-3.389c-0.377-0.293-0.539-0.858-0.388-1.367
			c0.15-0.509,0.57-0.826,1.018-0.768c0.003,0,0.451,0.057,1.147,0.057c1.338,0,3.532-0.201,5.404-1.308
			c-2.441-1.166-3.634-3.703-3.951-5.168c-0.083-0.38,0.001-0.782,0.218-1.071c-1.953-2.011-2.415-4.773-2.319-6.327
			c0.025-0.406,0.225-0.767,0.527-0.951c0.081-0.05,0.167-0.085,0.255-0.105c-1.354-3.042-0.614-6.29,0.179-7.912
			c0.156-0.319,0.43-0.53,0.737-0.568c0.306-0.04,0.61,0.102,0.817,0.377c2.662,3.536,5.577,5.236,7.554,6.039
			c1.054,0.428,1.961,0.655,2.617,0.775c0-0.05-0.001-0.1-0.001-0.149c0-4.502,3.049-8.166,6.797-8.166
			c3.62,0,6.795,3.815,6.795,8.166C62.85,55.613,55.202,65,45.06,65z M39.856,61.622c1.662,0.693,3.417,1.051,5.204,1.051
			c4.319,0,8.301-1.911,11.212-5.381c2.992-3.567,4.641-8.584,4.641-14.127c0-2.756-2.077-5.838-4.858-5.838
			c-2.679,0-4.859,2.619-4.859,5.838c0,0.407,0.035,0.814,0.104,1.209c0.06,0.345-0.013,0.703-0.198,0.975s-0.459,0.438-0.757,0.427
			c-0.266-0.002-6.19-0.132-11.625-6.394c-0.337,1.592-0.38,4.146,1.896,6.238c0.32,0.294,0.451,0.797,0.335,1.261
			c-0.117,0.464-0.464,0.793-0.867,0.825c0,0-0.058,0.005-0.162,0.005c-0.244,0-0.686-0.025-1.217-0.167
			c0.347,1.389,1.277,3.249,3.75,4.103c0.431,0.148,0.721,0.635,0.7,1.172c-0.021,0.539-0.346,0.989-0.787,1.09
			c-0.026,0.006-0.522,0.118-1.147,0.163c0.63,1.063,1.791,2.285,3.826,2.433c0.384,0.027,0.718,0.325,0.851,0.759
			c0.133,0.435,0.04,0.921-0.238,1.241C44,60.42,41.774,61.267,39.856,61.622z"/>
	</g>
	<g>
		<path fill="#FFFFFF" d="M61.426,41.603c-0.325,0-0.644-0.197-0.826-0.554c-0.28-0.547-0.139-1.264,0.317-1.601
			c0.135-0.1,0.265-0.207,0.392-0.32c-0.319,0.101-0.65,0.186-0.986,0.245c-0.529,0.097-1.021-0.346-1.099-0.982
			c-0.078-0.635,0.288-1.227,0.817-1.32c1.778-0.314,3.456-1.571,3.473-1.583c0.346-0.262,0.791-0.234,1.112,0.066
			c0.322,0.301,0.453,0.813,0.326,1.278c-0.519,1.909-1.591,3.542-3.021,4.598C61.773,41.546,61.599,41.603,61.426,41.603z"/>
	</g>
	<g>
		<path fill="#FFFFFF" d="M61.882,45.305c-0.297,0-0.59-0.164-0.78-0.473c-0.316-0.517-0.226-1.246,0.205-1.627
			c0.032-0.028,0.063-0.056,0.094-0.084c-0.159-0.169-0.272-0.401-0.313-0.671c-0.092-0.633,0.261-1.236,0.787-1.347
			c1.083-0.228,1.622-0.63,1.627-0.634c0.388-0.294,0.898-0.227,1.218,0.168c0.319,0.395,0.37,0.999,0.115,1.456
			c-0.645,1.153-1.445,2.158-2.378,2.985C62.284,45.23,62.082,45.305,61.882,45.305z"/>
	</g>
</g>
</svg>
